M48
;DRILL file {Pcbnew (2013-mar-13)-stable} date Fri 09 Oct 2015 12:04:21 PM CEST
;FORMAT={-:-/ absolute / metric / decimal}
FMAT,2
METRIC,TZ
T1C0.305
T2C0.800
T3C1.016
%
G90
G05
M71
T1
X97.282Y-65.278
X97.282Y-66.548
X97.282Y-67.818
X97.282Y-69.088
X97.282Y-70.358
X98.552Y-65.278
X99.822Y-65.278
X103.556Y-103.429
X104.267Y-99.568
X107.137Y-99.568
X108.585Y-65.278
X109.855Y-65.278
X110.084Y-101.575
X110.973Y-101.575
X111.125Y-65.278
X112.395Y-65.278
X115.57Y-100.813
X121.158Y-65.278
X122.428Y-65.278
X123.444Y-95.352
X123.698Y-65.278
X123.698Y-66.548
X123.698Y-67.818
X123.698Y-69.088
X123.698Y-70.358
X123.698Y-71.628
X123.698Y-72.898
X123.698Y-74.168
X123.698Y-75.438
X123.698Y-76.708
X123.698Y-77.978
X123.698Y-79.248
X123.698Y-80.518
X123.698Y-81.788
X123.698Y-83.058
X123.698Y-84.328
X123.698Y-85.598
X123.698Y-86.868
T2
X109.601Y-91.694
X109.601Y-96.774
X112.141Y-91.694
X112.141Y-96.774
T3
X99.06Y-96.52
X99.06Y-99.06
X99.06Y-101.6
X99.06Y-104.14
X101.6Y-66.04
X101.6Y-96.52
X101.6Y-99.06
X101.6Y-101.6
X101.6Y-104.14
X104.14Y-66.04
X106.68Y-66.04
X114.3Y-66.04
X116.84Y-66.04
X119.38Y-66.04
X119.38Y-96.52
X119.38Y-99.06
X119.38Y-101.6
X119.38Y-104.14
X121.92Y-96.52
X121.92Y-99.06
X121.92Y-101.6
X121.92Y-104.14
T0
M30
