G04 (created by PCBNEW (2013-mar-13)-stable) date Fri 09 Oct 2015 12:04:18 PM CEST*
%MOIN*%
G04 Gerber Fmt 3.4, Leading zero omitted, Abs format*
%FSLAX34Y34*%
G01*
G70*
G90*
G04 APERTURE LIST*
%ADD10C,0.005906*%
%ADD11C,0.007874*%
%ADD12C,0.005000*%
%ADD13C,0.006000*%
%ADD14C,0.008000*%
%ADD15C,0.001100*%
%ADD16C,0.010000*%
%ADD17C,0.004000*%
G04 APERTURE END LIST*
G54D10*
G54D11*
X39850Y-37350D02*
X39290Y-36790D01*
X47150Y-37350D02*
X48850Y-35650D01*
X46450Y-37350D02*
X47150Y-37350D01*
X45850Y-37950D02*
X45350Y-37950D01*
X46450Y-37350D02*
X45850Y-37950D01*
X41150Y-37950D02*
X41950Y-37950D01*
X40550Y-37350D02*
X41150Y-37950D01*
X39850Y-37350D02*
X40550Y-37350D01*
G54D12*
X45660Y-27150D02*
X44760Y-27150D01*
X44760Y-27150D02*
X44760Y-26650D01*
X44760Y-26650D02*
X45660Y-26650D01*
X45660Y-26650D02*
X45660Y-27150D01*
X46350Y-26650D02*
X47250Y-26650D01*
X47250Y-26650D02*
X47250Y-27150D01*
X47250Y-27150D02*
X46350Y-27150D01*
X46350Y-27150D02*
X46350Y-26650D01*
G54D13*
X44500Y-26500D02*
X44500Y-25500D01*
X44500Y-25500D02*
X47500Y-25500D01*
X47500Y-25500D02*
X47500Y-26500D01*
X47500Y-26500D02*
X44500Y-26500D01*
X45500Y-25500D02*
X45500Y-26500D01*
X39500Y-26500D02*
X39500Y-25500D01*
X39500Y-25500D02*
X42500Y-25500D01*
X42500Y-25500D02*
X42500Y-26500D01*
X42500Y-26500D02*
X39500Y-26500D01*
X40500Y-25500D02*
X40500Y-26500D01*
G54D10*
X46913Y-29848D02*
X45074Y-29848D01*
X45074Y-29848D02*
X45074Y-28351D01*
X45074Y-28351D02*
X46925Y-28351D01*
X46925Y-28351D02*
X46925Y-29848D01*
G54D12*
X46500Y-32150D02*
X47400Y-32150D01*
X47400Y-32150D02*
X47400Y-32650D01*
X47400Y-32650D02*
X46500Y-32650D01*
X46500Y-32650D02*
X46500Y-32150D01*
X46500Y-34250D02*
X47400Y-34250D01*
X47400Y-34250D02*
X47400Y-34750D01*
X47400Y-34750D02*
X46500Y-34750D01*
X46500Y-34750D02*
X46500Y-34250D01*
X45450Y-32600D02*
X46350Y-32600D01*
X46350Y-32600D02*
X46350Y-33100D01*
X46350Y-33100D02*
X45450Y-33100D01*
X45450Y-33100D02*
X45450Y-32600D01*
X45450Y-34650D02*
X46350Y-34650D01*
X46350Y-34650D02*
X46350Y-35150D01*
X46350Y-35150D02*
X45450Y-35150D01*
X45450Y-35150D02*
X45450Y-34650D01*
X45450Y-33250D02*
X46350Y-33250D01*
X46350Y-33250D02*
X46350Y-33750D01*
X46350Y-33750D02*
X45450Y-33750D01*
X45450Y-33750D02*
X45450Y-33250D01*
X45450Y-35350D02*
X46350Y-35350D01*
X46350Y-35350D02*
X46350Y-35850D01*
X46350Y-35850D02*
X45450Y-35850D01*
X45450Y-35850D02*
X45450Y-35350D01*
X43600Y-30650D02*
X42400Y-30650D01*
X42400Y-30650D02*
X42400Y-30350D01*
X42400Y-30350D02*
X43600Y-30350D01*
X43600Y-30350D02*
X43600Y-30650D01*
X44850Y-31300D02*
X43650Y-31300D01*
X43650Y-31300D02*
X43650Y-31000D01*
X43650Y-31000D02*
X44850Y-31000D01*
X44850Y-31000D02*
X44850Y-31300D01*
X42650Y-27900D02*
X41450Y-27900D01*
X41450Y-27900D02*
X41450Y-27600D01*
X41450Y-27600D02*
X42650Y-27600D01*
X42650Y-27600D02*
X42650Y-27900D01*
X41000Y-32300D02*
X42200Y-32300D01*
X42200Y-32300D02*
X42200Y-32600D01*
X42200Y-32600D02*
X41000Y-32600D01*
X41000Y-32600D02*
X41000Y-32300D01*
X46500Y-32800D02*
X47400Y-32800D01*
X47400Y-32800D02*
X47400Y-33300D01*
X47400Y-33300D02*
X46500Y-33300D01*
X46500Y-33300D02*
X46500Y-32800D01*
X46500Y-34900D02*
X47400Y-34900D01*
X47400Y-34900D02*
X47400Y-35400D01*
X47400Y-35400D02*
X46500Y-35400D01*
X46500Y-35400D02*
X46500Y-34900D01*
X45200Y-35700D02*
X45200Y-36600D01*
X45200Y-36600D02*
X44700Y-36600D01*
X44700Y-36600D02*
X44700Y-35700D01*
X44700Y-35700D02*
X45200Y-35700D01*
X44700Y-31900D02*
X45600Y-31900D01*
X45600Y-31900D02*
X45600Y-32400D01*
X45600Y-32400D02*
X44700Y-32400D01*
X44700Y-32400D02*
X44700Y-31900D01*
X41250Y-35450D02*
X42150Y-35450D01*
X42150Y-35450D02*
X42150Y-35950D01*
X42150Y-35950D02*
X41250Y-35950D01*
X41250Y-35950D02*
X41250Y-35450D01*
X41060Y-33500D02*
X41960Y-33500D01*
X41960Y-33500D02*
X41960Y-34000D01*
X41960Y-34000D02*
X41060Y-34000D01*
X41060Y-34000D02*
X41060Y-33500D01*
X40350Y-30100D02*
X41250Y-30100D01*
X41250Y-30100D02*
X41250Y-30600D01*
X41250Y-30600D02*
X40350Y-30600D01*
X40350Y-30600D02*
X40350Y-30100D01*
X45350Y-31050D02*
X46250Y-31050D01*
X46250Y-31050D02*
X46250Y-31550D01*
X46250Y-31550D02*
X45350Y-31550D01*
X45350Y-31550D02*
X45350Y-31050D01*
G54D10*
X40064Y-29881D02*
X40064Y-28818D01*
X39435Y-29881D02*
X39435Y-28818D01*
G54D12*
X41400Y-29500D02*
X40200Y-29500D01*
X40200Y-29500D02*
X40200Y-29200D01*
X40200Y-29200D02*
X41400Y-29200D01*
X41400Y-29200D02*
X41400Y-29500D01*
X42200Y-34500D02*
X42200Y-33600D01*
X42200Y-33600D02*
X42700Y-33600D01*
X42700Y-33600D02*
X42700Y-34500D01*
X42700Y-34500D02*
X42200Y-34500D01*
X42400Y-32200D02*
X42400Y-31300D01*
X42400Y-31300D02*
X42900Y-31300D01*
X42900Y-31300D02*
X42900Y-32200D01*
X42900Y-32200D02*
X42400Y-32200D01*
X42500Y-29000D02*
X41600Y-29000D01*
X41600Y-29000D02*
X41600Y-28500D01*
X41600Y-28500D02*
X42500Y-28500D01*
X42500Y-28500D02*
X42500Y-29000D01*
X41250Y-31300D02*
X40350Y-31300D01*
X40350Y-31300D02*
X40350Y-30800D01*
X40350Y-30800D02*
X41250Y-30800D01*
X41250Y-30800D02*
X41250Y-31300D01*
G54D14*
X42700Y-39912D02*
X42700Y-41288D01*
X45299Y-41288D02*
X45299Y-39912D01*
G54D12*
X39100Y-29550D02*
X39100Y-29950D01*
X39100Y-29950D02*
X38500Y-29950D01*
X38500Y-29950D02*
X38500Y-29550D01*
X38500Y-29150D02*
X38500Y-28750D01*
X38500Y-28750D02*
X39100Y-28750D01*
X39100Y-28750D02*
X39100Y-29150D01*
X41250Y-35000D02*
X40850Y-35000D01*
X40850Y-35000D02*
X40850Y-34400D01*
X40850Y-34400D02*
X41250Y-34400D01*
X41650Y-34400D02*
X42050Y-34400D01*
X42050Y-34400D02*
X42050Y-35000D01*
X42050Y-35000D02*
X41650Y-35000D01*
X41600Y-30250D02*
X41600Y-29850D01*
X41600Y-29850D02*
X42200Y-29850D01*
X42200Y-29850D02*
X42200Y-30250D01*
X42200Y-30650D02*
X42200Y-31050D01*
X42200Y-31050D02*
X41600Y-31050D01*
X41600Y-31050D02*
X41600Y-30650D01*
X42700Y-28900D02*
X42700Y-28500D01*
X42700Y-28500D02*
X43300Y-28500D01*
X43300Y-28500D02*
X43300Y-28900D01*
X43300Y-29300D02*
X43300Y-29700D01*
X43300Y-29700D02*
X42700Y-29700D01*
X42700Y-29700D02*
X42700Y-29300D01*
X44100Y-29650D02*
X44100Y-30050D01*
X44100Y-30050D02*
X43500Y-30050D01*
X43500Y-30050D02*
X43500Y-29650D01*
X43500Y-29250D02*
X43500Y-28850D01*
X43500Y-28850D02*
X44100Y-28850D01*
X44100Y-28850D02*
X44100Y-29250D01*
X42050Y-38800D02*
X42050Y-37900D01*
X42050Y-37900D02*
X42550Y-37900D01*
X42550Y-37900D02*
X42550Y-38800D01*
X42550Y-38800D02*
X42050Y-38800D01*
X44750Y-38800D02*
X44750Y-37900D01*
X44750Y-37900D02*
X45250Y-37900D01*
X45250Y-37900D02*
X45250Y-38800D01*
X45250Y-38800D02*
X44750Y-38800D01*
G54D15*
X39090Y-32410D02*
X39190Y-32410D01*
X39030Y-32420D02*
X39280Y-32420D01*
X39030Y-32430D02*
X39280Y-32430D01*
X39020Y-32440D02*
X39290Y-32440D01*
X39020Y-32450D02*
X39290Y-32450D01*
X39020Y-32460D02*
X39290Y-32460D01*
X39020Y-32470D02*
X39290Y-32470D01*
X39020Y-32480D02*
X39290Y-32480D01*
X39020Y-32490D02*
X39290Y-32490D01*
X39010Y-32500D02*
X39300Y-32500D01*
X39010Y-32510D02*
X39300Y-32510D01*
X39010Y-32520D02*
X39300Y-32520D01*
X39010Y-32530D02*
X39300Y-32530D01*
X39010Y-32540D02*
X39300Y-32540D01*
X39000Y-32550D02*
X39300Y-32550D01*
X39000Y-32560D02*
X39310Y-32560D01*
X39000Y-32570D02*
X39310Y-32570D01*
X39000Y-32580D02*
X39310Y-32580D01*
X39000Y-32590D02*
X39310Y-32590D01*
X38590Y-32600D02*
X38620Y-32600D01*
X39000Y-32600D02*
X39310Y-32600D01*
X39680Y-32600D02*
X39720Y-32600D01*
X38580Y-32610D02*
X38630Y-32610D01*
X38990Y-32610D02*
X39310Y-32610D01*
X39660Y-32610D02*
X39730Y-32610D01*
X38570Y-32620D02*
X38650Y-32620D01*
X38990Y-32620D02*
X39310Y-32620D01*
X39650Y-32620D02*
X39740Y-32620D01*
X38550Y-32630D02*
X38660Y-32630D01*
X38990Y-32630D02*
X39320Y-32630D01*
X39630Y-32630D02*
X39760Y-32630D01*
X38540Y-32640D02*
X38680Y-32640D01*
X38990Y-32640D02*
X39320Y-32640D01*
X39620Y-32640D02*
X39770Y-32640D01*
X38530Y-32650D02*
X38690Y-32650D01*
X38990Y-32650D02*
X39320Y-32650D01*
X39600Y-32650D02*
X39780Y-32650D01*
X38520Y-32660D02*
X38700Y-32660D01*
X38980Y-32660D02*
X39320Y-32660D01*
X39590Y-32660D02*
X39790Y-32660D01*
X38510Y-32670D02*
X38720Y-32670D01*
X38950Y-32670D02*
X39360Y-32670D01*
X39570Y-32670D02*
X39800Y-32670D01*
X38500Y-32680D02*
X38730Y-32680D01*
X38920Y-32680D02*
X39390Y-32680D01*
X39560Y-32680D02*
X39810Y-32680D01*
X38490Y-32690D02*
X38750Y-32690D01*
X38890Y-32690D02*
X39410Y-32690D01*
X39540Y-32690D02*
X39820Y-32690D01*
X38480Y-32700D02*
X38760Y-32700D01*
X38870Y-32700D02*
X39440Y-32700D01*
X39530Y-32700D02*
X39830Y-32700D01*
X38470Y-32710D02*
X38770Y-32710D01*
X38850Y-32710D02*
X39460Y-32710D01*
X39520Y-32710D02*
X39840Y-32710D01*
X38460Y-32720D02*
X38790Y-32720D01*
X38830Y-32720D02*
X39480Y-32720D01*
X39500Y-32720D02*
X39850Y-32720D01*
X38450Y-32730D02*
X38800Y-32730D01*
X38810Y-32730D02*
X39860Y-32730D01*
X38440Y-32740D02*
X39860Y-32740D01*
X38440Y-32750D02*
X39870Y-32750D01*
X38430Y-32760D02*
X39870Y-32760D01*
X38430Y-32770D02*
X39870Y-32770D01*
X38440Y-32780D02*
X39870Y-32780D01*
X38440Y-32790D02*
X39860Y-32790D01*
X38450Y-32800D02*
X39860Y-32800D01*
X38460Y-32810D02*
X39850Y-32810D01*
X38460Y-32820D02*
X39840Y-32820D01*
X38470Y-32830D02*
X39830Y-32830D01*
X38480Y-32840D02*
X39830Y-32840D01*
X38490Y-32850D02*
X39820Y-32850D01*
X38490Y-32860D02*
X39810Y-32860D01*
X38500Y-32870D02*
X39810Y-32870D01*
X38510Y-32880D02*
X39800Y-32880D01*
X38510Y-32890D02*
X39790Y-32890D01*
X38520Y-32900D02*
X39780Y-32900D01*
X38530Y-32910D02*
X39780Y-32910D01*
X38530Y-32920D02*
X39770Y-32920D01*
X38540Y-32930D02*
X39760Y-32930D01*
X38550Y-32940D02*
X39750Y-32940D01*
X38550Y-32950D02*
X39750Y-32950D01*
X38560Y-32960D02*
X39740Y-32960D01*
X38560Y-32970D02*
X39740Y-32970D01*
X38560Y-32980D02*
X39750Y-32980D01*
X38550Y-32990D02*
X39760Y-32990D01*
X38550Y-33000D02*
X39760Y-33000D01*
X38540Y-33010D02*
X39770Y-33010D01*
X38540Y-33020D02*
X39770Y-33020D01*
X38530Y-33030D02*
X39780Y-33030D01*
X38530Y-33040D02*
X39780Y-33040D01*
X38520Y-33050D02*
X39790Y-33050D01*
X38520Y-33060D02*
X39790Y-33060D01*
X38510Y-33070D02*
X39790Y-33070D01*
X38510Y-33080D02*
X39110Y-33080D01*
X39200Y-33080D02*
X39800Y-33080D01*
X38510Y-33090D02*
X39080Y-33090D01*
X39230Y-33090D02*
X39800Y-33090D01*
X38500Y-33100D02*
X39050Y-33100D01*
X39260Y-33100D02*
X39810Y-33100D01*
X38500Y-33110D02*
X39030Y-33110D01*
X39280Y-33110D02*
X39810Y-33110D01*
X38500Y-33120D02*
X39020Y-33120D01*
X39290Y-33120D02*
X39810Y-33120D01*
X38490Y-33130D02*
X39000Y-33130D01*
X39310Y-33130D02*
X39820Y-33130D01*
X38490Y-33140D02*
X38990Y-33140D01*
X39320Y-33140D02*
X39850Y-33140D01*
X38490Y-33150D02*
X38980Y-33150D01*
X39330Y-33150D02*
X39910Y-33150D01*
X38480Y-33160D02*
X38970Y-33160D01*
X39340Y-33160D02*
X39960Y-33160D01*
X38420Y-33170D02*
X38960Y-33170D01*
X39350Y-33170D02*
X40020Y-33170D01*
X38360Y-33180D02*
X38960Y-33180D01*
X39350Y-33180D02*
X40060Y-33180D01*
X38300Y-33190D02*
X38950Y-33190D01*
X39360Y-33190D02*
X40060Y-33190D01*
X38250Y-33200D02*
X38940Y-33200D01*
X39370Y-33200D02*
X40070Y-33200D01*
X38240Y-33210D02*
X38940Y-33210D01*
X39370Y-33210D02*
X40070Y-33210D01*
X38240Y-33220D02*
X38930Y-33220D01*
X39380Y-33220D02*
X40070Y-33220D01*
X38240Y-33230D02*
X38930Y-33230D01*
X39380Y-33230D02*
X40070Y-33230D01*
X38240Y-33240D02*
X38920Y-33240D01*
X39390Y-33240D02*
X40070Y-33240D01*
X38240Y-33250D02*
X38920Y-33250D01*
X39390Y-33250D02*
X40070Y-33250D01*
X38240Y-33260D02*
X38920Y-33260D01*
X39390Y-33260D02*
X40070Y-33260D01*
X38240Y-33270D02*
X38920Y-33270D01*
X39400Y-33270D02*
X40070Y-33270D01*
X38240Y-33280D02*
X38910Y-33280D01*
X39400Y-33280D02*
X40070Y-33280D01*
X38240Y-33290D02*
X38910Y-33290D01*
X39400Y-33290D02*
X40080Y-33290D01*
X38230Y-33300D02*
X38910Y-33300D01*
X39400Y-33300D02*
X40080Y-33300D01*
X38230Y-33310D02*
X38910Y-33310D01*
X39400Y-33310D02*
X40080Y-33310D01*
X38230Y-33320D02*
X38910Y-33320D01*
X39400Y-33320D02*
X40080Y-33320D01*
X38230Y-33330D02*
X38910Y-33330D01*
X39400Y-33330D02*
X40080Y-33330D01*
X38230Y-33340D02*
X38910Y-33340D01*
X39400Y-33340D02*
X40080Y-33340D01*
X38230Y-33350D02*
X38910Y-33350D01*
X39400Y-33350D02*
X40080Y-33350D01*
X38230Y-33360D02*
X38910Y-33360D01*
X39400Y-33360D02*
X40080Y-33360D01*
X38230Y-33370D02*
X38910Y-33370D01*
X39400Y-33370D02*
X40080Y-33370D01*
X38230Y-33380D02*
X38920Y-33380D01*
X39400Y-33380D02*
X40080Y-33380D01*
X38240Y-33390D02*
X38920Y-33390D01*
X39390Y-33390D02*
X40080Y-33390D01*
X38240Y-33400D02*
X38920Y-33400D01*
X39390Y-33400D02*
X40070Y-33400D01*
X38240Y-33410D02*
X38930Y-33410D01*
X39390Y-33410D02*
X40070Y-33410D01*
X38240Y-33420D02*
X38930Y-33420D01*
X39380Y-33420D02*
X40070Y-33420D01*
X38240Y-33430D02*
X38930Y-33430D01*
X39380Y-33430D02*
X40060Y-33430D01*
X38240Y-33440D02*
X38940Y-33440D01*
X39370Y-33440D02*
X40000Y-33440D01*
X38280Y-33450D02*
X38950Y-33450D01*
X39370Y-33450D02*
X39940Y-33450D01*
X38330Y-33460D02*
X38950Y-33460D01*
X39360Y-33460D02*
X39870Y-33460D01*
X38390Y-33470D02*
X38960Y-33470D01*
X39350Y-33470D02*
X39830Y-33470D01*
X38440Y-33480D02*
X38970Y-33480D01*
X39340Y-33480D02*
X39830Y-33480D01*
X38480Y-33490D02*
X38980Y-33490D01*
X39340Y-33490D02*
X39830Y-33490D01*
X38490Y-33500D02*
X38980Y-33500D01*
X39330Y-33500D02*
X39820Y-33500D01*
X38490Y-33510D02*
X39000Y-33510D01*
X39310Y-33510D02*
X39820Y-33510D01*
X38490Y-33520D02*
X39010Y-33520D01*
X39300Y-33520D02*
X39820Y-33520D01*
X38490Y-33530D02*
X39020Y-33530D01*
X39290Y-33530D02*
X39820Y-33530D01*
X38500Y-33540D02*
X39040Y-33540D01*
X39270Y-33540D02*
X39810Y-33540D01*
X38500Y-33550D02*
X39060Y-33550D01*
X39250Y-33550D02*
X39810Y-33550D01*
X38500Y-33560D02*
X39070Y-33560D01*
X39250Y-33560D02*
X39810Y-33560D01*
X38510Y-33570D02*
X39070Y-33570D01*
X39250Y-33570D02*
X39800Y-33570D01*
X38510Y-33580D02*
X39070Y-33580D01*
X39250Y-33580D02*
X39800Y-33580D01*
X38510Y-33590D02*
X39060Y-33590D01*
X39260Y-33590D02*
X39790Y-33590D01*
X38520Y-33600D02*
X39060Y-33600D01*
X39260Y-33600D02*
X39790Y-33600D01*
X38520Y-33610D02*
X39060Y-33610D01*
X39260Y-33610D02*
X39790Y-33610D01*
X38530Y-33620D02*
X39050Y-33620D01*
X39270Y-33620D02*
X39780Y-33620D01*
X38530Y-33630D02*
X39050Y-33630D01*
X39270Y-33630D02*
X39780Y-33630D01*
X38540Y-33640D02*
X39040Y-33640D01*
X39280Y-33640D02*
X39770Y-33640D01*
X38540Y-33650D02*
X39040Y-33650D01*
X39280Y-33650D02*
X39770Y-33650D01*
X38550Y-33660D02*
X39040Y-33660D01*
X39280Y-33660D02*
X39760Y-33660D01*
X38550Y-33670D02*
X39030Y-33670D01*
X39290Y-33670D02*
X39770Y-33670D01*
X38560Y-33680D02*
X39030Y-33680D01*
X39290Y-33680D02*
X39770Y-33680D01*
X38560Y-33690D02*
X39030Y-33690D01*
X39300Y-33690D02*
X39780Y-33690D01*
X38560Y-33700D02*
X39020Y-33700D01*
X39300Y-33700D02*
X39790Y-33700D01*
X38560Y-33710D02*
X39020Y-33710D01*
X39300Y-33710D02*
X39800Y-33710D01*
X38550Y-33720D02*
X39020Y-33720D01*
X39310Y-33720D02*
X39800Y-33720D01*
X38540Y-33730D02*
X39010Y-33730D01*
X39310Y-33730D02*
X39810Y-33730D01*
X38530Y-33740D02*
X39010Y-33740D01*
X39310Y-33740D02*
X39820Y-33740D01*
X38530Y-33750D02*
X39010Y-33750D01*
X39320Y-33750D02*
X39820Y-33750D01*
X38520Y-33760D02*
X39000Y-33760D01*
X39320Y-33760D02*
X39830Y-33760D01*
X38510Y-33770D02*
X39000Y-33770D01*
X39330Y-33770D02*
X39840Y-33770D01*
X38500Y-33780D02*
X39000Y-33780D01*
X39330Y-33780D02*
X39840Y-33780D01*
X38500Y-33790D02*
X38990Y-33790D01*
X39330Y-33790D02*
X39850Y-33790D01*
X38490Y-33800D02*
X38990Y-33800D01*
X39340Y-33800D02*
X39860Y-33800D01*
X38480Y-33810D02*
X38980Y-33810D01*
X39340Y-33810D02*
X39860Y-33810D01*
X38480Y-33820D02*
X38980Y-33820D01*
X39350Y-33820D02*
X39870Y-33820D01*
X38470Y-33830D02*
X38980Y-33830D01*
X39350Y-33830D02*
X39880Y-33830D01*
X38460Y-33840D02*
X38970Y-33840D01*
X39350Y-33840D02*
X39890Y-33840D01*
X38450Y-33850D02*
X38970Y-33850D01*
X39360Y-33850D02*
X39890Y-33850D01*
X38450Y-33860D02*
X38970Y-33860D01*
X39360Y-33860D02*
X39900Y-33860D01*
X38440Y-33870D02*
X38960Y-33870D01*
X39370Y-33870D02*
X39900Y-33870D01*
X38430Y-33880D02*
X38960Y-33880D01*
X39370Y-33880D02*
X39900Y-33880D01*
X38430Y-33890D02*
X38960Y-33890D01*
X39370Y-33890D02*
X39890Y-33890D01*
X38430Y-33900D02*
X38950Y-33900D01*
X39380Y-33900D02*
X39880Y-33900D01*
X38430Y-33910D02*
X38950Y-33910D01*
X39380Y-33910D02*
X39870Y-33910D01*
X38440Y-33920D02*
X38950Y-33920D01*
X39380Y-33920D02*
X39860Y-33920D01*
X38450Y-33930D02*
X38940Y-33930D01*
X39390Y-33930D02*
X39860Y-33930D01*
X38460Y-33940D02*
X38940Y-33940D01*
X39390Y-33940D02*
X39530Y-33940D01*
X39550Y-33940D02*
X39850Y-33940D01*
X38470Y-33950D02*
X38940Y-33950D01*
X39400Y-33950D02*
X39500Y-33950D01*
X39580Y-33950D02*
X39840Y-33950D01*
X38480Y-33960D02*
X38780Y-33960D01*
X38830Y-33960D02*
X38930Y-33960D01*
X39400Y-33960D02*
X39480Y-33960D01*
X39590Y-33960D02*
X39830Y-33960D01*
X38490Y-33970D02*
X38760Y-33970D01*
X38860Y-33970D02*
X38930Y-33970D01*
X39400Y-33970D02*
X39460Y-33970D01*
X39600Y-33970D02*
X39820Y-33970D01*
X38500Y-33980D02*
X38740Y-33980D01*
X38880Y-33980D02*
X38920Y-33980D01*
X39410Y-33980D02*
X39440Y-33980D01*
X39610Y-33980D02*
X39830Y-33980D01*
X38510Y-33990D02*
X38730Y-33990D01*
X38900Y-33990D02*
X38920Y-33990D01*
X39410Y-33990D02*
X39420Y-33990D01*
X39610Y-33990D02*
X39830Y-33990D01*
X38520Y-34000D02*
X38710Y-34000D01*
X39630Y-34000D02*
X39830Y-34000D01*
X38530Y-34010D02*
X38700Y-34010D01*
X39640Y-34010D02*
X39830Y-34010D01*
X38530Y-34020D02*
X38680Y-34020D01*
X39650Y-34020D02*
X39830Y-34020D01*
X38530Y-34030D02*
X38670Y-34030D01*
X39670Y-34030D02*
X39830Y-34030D01*
X38530Y-34040D02*
X38660Y-34040D01*
X39690Y-34040D02*
X39820Y-34040D01*
X38540Y-34050D02*
X38650Y-34050D01*
X39710Y-34050D02*
X39820Y-34050D01*
X38540Y-34060D02*
X38640Y-34060D01*
X39720Y-34060D02*
X39810Y-34060D01*
X38550Y-34070D02*
X38640Y-34070D01*
X39730Y-34070D02*
X39810Y-34070D01*
X38560Y-34080D02*
X38630Y-34080D01*
X39740Y-34080D02*
X39800Y-34080D01*
X38570Y-34090D02*
X38630Y-34090D01*
X39750Y-34090D02*
X39790Y-34090D01*
X38580Y-34100D02*
X38620Y-34100D01*
X39760Y-34100D02*
X39780Y-34100D01*
X38590Y-34110D02*
X38620Y-34110D01*
G54D12*
X41930Y-40290D02*
X41930Y-39390D01*
X41930Y-39390D02*
X42430Y-39390D01*
X42430Y-39390D02*
X42430Y-40290D01*
X42430Y-40290D02*
X41930Y-40290D01*
G54D16*
X48500Y-37500D02*
X48500Y-41500D01*
X47500Y-37500D02*
X47500Y-41500D01*
X47500Y-41500D02*
X48500Y-41500D01*
X48500Y-37500D02*
X47500Y-37500D01*
X47500Y-37500D02*
X47500Y-41500D01*
X46500Y-37500D02*
X46500Y-41500D01*
X46500Y-41500D02*
X47500Y-41500D01*
X47500Y-37500D02*
X46500Y-37500D01*
X39500Y-37500D02*
X39500Y-41500D01*
X38500Y-37500D02*
X38500Y-41500D01*
X38500Y-41500D02*
X39500Y-41500D01*
X39500Y-37500D02*
X38500Y-37500D01*
X40500Y-37500D02*
X40500Y-41500D01*
X39500Y-37500D02*
X39500Y-41500D01*
X39500Y-41500D02*
X40500Y-41500D01*
X40500Y-37500D02*
X39500Y-37500D01*
G54D12*
X47850Y-36850D02*
X48750Y-36850D01*
X48750Y-36850D02*
X48750Y-37350D01*
X48750Y-37350D02*
X47850Y-37350D01*
X47850Y-37350D02*
X47850Y-36850D01*
G54D14*
X42787Y-33362D02*
X42787Y-34738D01*
X44912Y-34738D02*
X44912Y-33362D01*
G54D10*
X43602Y-36149D02*
X43504Y-36149D01*
X43602Y-38050D02*
X43504Y-38050D01*
X42697Y-36149D02*
X42795Y-36149D01*
X42697Y-38050D02*
X42795Y-38050D01*
X43602Y-38050D02*
X43602Y-36149D01*
X42697Y-38050D02*
X42697Y-36149D01*
X44602Y-36149D02*
X44504Y-36149D01*
X44602Y-38050D02*
X44504Y-38050D01*
X43697Y-36149D02*
X43795Y-36149D01*
X43697Y-38050D02*
X43795Y-38050D01*
X44602Y-38050D02*
X44602Y-36149D01*
X43697Y-38050D02*
X43697Y-36149D01*
G54D17*
X44360Y-27035D02*
X44217Y-27035D01*
X44217Y-26735D01*
X44617Y-27035D02*
X44445Y-27035D01*
X44531Y-27035D02*
X44531Y-26735D01*
X44502Y-26778D01*
X44474Y-26807D01*
X44445Y-26821D01*
X47550Y-27035D02*
X47407Y-27035D01*
X47407Y-26735D01*
X47635Y-26764D02*
X47650Y-26750D01*
X47678Y-26735D01*
X47750Y-26735D01*
X47778Y-26750D01*
X47792Y-26764D01*
X47807Y-26792D01*
X47807Y-26821D01*
X47792Y-26864D01*
X47621Y-27035D01*
X47807Y-27035D01*
X47678Y-26485D02*
X47678Y-26185D01*
X47792Y-26185D01*
X47821Y-26200D01*
X47835Y-26214D01*
X47850Y-26242D01*
X47850Y-26285D01*
X47835Y-26314D01*
X47821Y-26328D01*
X47792Y-26342D01*
X47678Y-26342D01*
X48135Y-26485D02*
X47964Y-26485D01*
X48050Y-26485D02*
X48050Y-26185D01*
X48021Y-26228D01*
X47992Y-26257D01*
X47964Y-26271D01*
X38878Y-26485D02*
X38878Y-26185D01*
X38992Y-26185D01*
X39021Y-26200D01*
X39035Y-26214D01*
X39050Y-26242D01*
X39050Y-26285D01*
X39035Y-26314D01*
X39021Y-26328D01*
X38992Y-26342D01*
X38878Y-26342D01*
X39164Y-26214D02*
X39178Y-26200D01*
X39207Y-26185D01*
X39278Y-26185D01*
X39307Y-26200D01*
X39321Y-26214D01*
X39335Y-26242D01*
X39335Y-26271D01*
X39321Y-26314D01*
X39150Y-26485D01*
X39335Y-26485D01*
X47335Y-29321D02*
X47035Y-29321D01*
X47035Y-29250D01*
X47050Y-29207D01*
X47078Y-29178D01*
X47107Y-29164D01*
X47164Y-29150D01*
X47207Y-29150D01*
X47264Y-29164D01*
X47292Y-29178D01*
X47321Y-29207D01*
X47335Y-29250D01*
X47335Y-29321D01*
X47335Y-28864D02*
X47335Y-29035D01*
X47335Y-28950D02*
X47035Y-28950D01*
X47078Y-28978D01*
X47107Y-29007D01*
X47121Y-29035D01*
X47750Y-32535D02*
X47650Y-32392D01*
X47578Y-32535D02*
X47578Y-32235D01*
X47692Y-32235D01*
X47721Y-32250D01*
X47735Y-32264D01*
X47750Y-32292D01*
X47750Y-32335D01*
X47735Y-32364D01*
X47721Y-32378D01*
X47692Y-32392D01*
X47578Y-32392D01*
X48035Y-32535D02*
X47864Y-32535D01*
X47950Y-32535D02*
X47950Y-32235D01*
X47921Y-32278D01*
X47892Y-32307D01*
X47864Y-32321D01*
X47750Y-34635D02*
X47650Y-34492D01*
X47578Y-34635D02*
X47578Y-34335D01*
X47692Y-34335D01*
X47721Y-34350D01*
X47735Y-34364D01*
X47750Y-34392D01*
X47750Y-34435D01*
X47735Y-34464D01*
X47721Y-34478D01*
X47692Y-34492D01*
X47578Y-34492D01*
X47864Y-34364D02*
X47878Y-34350D01*
X47907Y-34335D01*
X47978Y-34335D01*
X48007Y-34350D01*
X48021Y-34364D01*
X48035Y-34392D01*
X48035Y-34421D01*
X48021Y-34464D01*
X47850Y-34635D01*
X48035Y-34635D01*
X45950Y-32435D02*
X45850Y-32292D01*
X45778Y-32435D02*
X45778Y-32135D01*
X45892Y-32135D01*
X45921Y-32150D01*
X45935Y-32164D01*
X45950Y-32192D01*
X45950Y-32235D01*
X45935Y-32264D01*
X45921Y-32278D01*
X45892Y-32292D01*
X45778Y-32292D01*
X46050Y-32135D02*
X46235Y-32135D01*
X46135Y-32250D01*
X46178Y-32250D01*
X46207Y-32264D01*
X46221Y-32278D01*
X46235Y-32307D01*
X46235Y-32378D01*
X46221Y-32407D01*
X46207Y-32421D01*
X46178Y-32435D01*
X46092Y-32435D01*
X46064Y-32421D01*
X46050Y-32407D01*
X45850Y-34485D02*
X45750Y-34342D01*
X45678Y-34485D02*
X45678Y-34185D01*
X45792Y-34185D01*
X45821Y-34200D01*
X45835Y-34214D01*
X45850Y-34242D01*
X45850Y-34285D01*
X45835Y-34314D01*
X45821Y-34328D01*
X45792Y-34342D01*
X45678Y-34342D01*
X46107Y-34285D02*
X46107Y-34485D01*
X46035Y-34171D02*
X45964Y-34385D01*
X46150Y-34385D01*
X46700Y-33835D02*
X46600Y-33692D01*
X46528Y-33835D02*
X46528Y-33535D01*
X46642Y-33535D01*
X46671Y-33550D01*
X46685Y-33564D01*
X46700Y-33592D01*
X46700Y-33635D01*
X46685Y-33664D01*
X46671Y-33678D01*
X46642Y-33692D01*
X46528Y-33692D01*
X46971Y-33535D02*
X46828Y-33535D01*
X46814Y-33678D01*
X46828Y-33664D01*
X46857Y-33650D01*
X46928Y-33650D01*
X46957Y-33664D01*
X46971Y-33678D01*
X46985Y-33707D01*
X46985Y-33778D01*
X46971Y-33807D01*
X46957Y-33821D01*
X46928Y-33835D01*
X46857Y-33835D01*
X46828Y-33821D01*
X46814Y-33807D01*
X46700Y-35985D02*
X46600Y-35842D01*
X46528Y-35985D02*
X46528Y-35685D01*
X46642Y-35685D01*
X46671Y-35700D01*
X46685Y-35714D01*
X46700Y-35742D01*
X46700Y-35785D01*
X46685Y-35814D01*
X46671Y-35828D01*
X46642Y-35842D01*
X46528Y-35842D01*
X46957Y-35685D02*
X46900Y-35685D01*
X46871Y-35700D01*
X46857Y-35714D01*
X46828Y-35757D01*
X46814Y-35814D01*
X46814Y-35928D01*
X46828Y-35957D01*
X46842Y-35971D01*
X46871Y-35985D01*
X46928Y-35985D01*
X46957Y-35971D01*
X46971Y-35957D01*
X46985Y-35928D01*
X46985Y-35857D01*
X46971Y-35828D01*
X46957Y-35814D01*
X46928Y-35800D01*
X46871Y-35800D01*
X46842Y-35814D01*
X46828Y-35828D01*
X46814Y-35857D01*
X43271Y-31564D02*
X43242Y-31550D01*
X43214Y-31521D01*
X43171Y-31478D01*
X43142Y-31464D01*
X43114Y-31464D01*
X43128Y-31535D02*
X43100Y-31521D01*
X43071Y-31492D01*
X43057Y-31435D01*
X43057Y-31335D01*
X43071Y-31278D01*
X43100Y-31250D01*
X43128Y-31235D01*
X43185Y-31235D01*
X43214Y-31250D01*
X43242Y-31278D01*
X43257Y-31335D01*
X43257Y-31435D01*
X43242Y-31492D01*
X43214Y-31521D01*
X43185Y-31535D01*
X43128Y-31535D01*
X43542Y-31535D02*
X43371Y-31535D01*
X43457Y-31535D02*
X43457Y-31235D01*
X43428Y-31278D01*
X43400Y-31307D01*
X43371Y-31321D01*
X43321Y-32114D02*
X43292Y-32100D01*
X43264Y-32071D01*
X43221Y-32028D01*
X43192Y-32014D01*
X43164Y-32014D01*
X43178Y-32085D02*
X43150Y-32071D01*
X43121Y-32042D01*
X43107Y-31985D01*
X43107Y-31885D01*
X43121Y-31828D01*
X43150Y-31800D01*
X43178Y-31785D01*
X43235Y-31785D01*
X43264Y-31800D01*
X43292Y-31828D01*
X43307Y-31885D01*
X43307Y-31985D01*
X43292Y-32042D01*
X43264Y-32071D01*
X43235Y-32085D01*
X43178Y-32085D01*
X43421Y-31814D02*
X43435Y-31800D01*
X43464Y-31785D01*
X43535Y-31785D01*
X43564Y-31800D01*
X43578Y-31814D01*
X43592Y-31842D01*
X43592Y-31871D01*
X43578Y-31914D01*
X43407Y-32085D01*
X43592Y-32085D01*
X40991Y-27914D02*
X40962Y-27900D01*
X40934Y-27871D01*
X40891Y-27828D01*
X40862Y-27814D01*
X40834Y-27814D01*
X40848Y-27885D02*
X40820Y-27871D01*
X40791Y-27842D01*
X40777Y-27785D01*
X40777Y-27685D01*
X40791Y-27628D01*
X40820Y-27600D01*
X40848Y-27585D01*
X40905Y-27585D01*
X40934Y-27600D01*
X40962Y-27628D01*
X40977Y-27685D01*
X40977Y-27785D01*
X40962Y-27842D01*
X40934Y-27871D01*
X40905Y-27885D01*
X40848Y-27885D01*
X41077Y-27585D02*
X41262Y-27585D01*
X41162Y-27700D01*
X41205Y-27700D01*
X41234Y-27714D01*
X41248Y-27728D01*
X41262Y-27757D01*
X41262Y-27828D01*
X41248Y-27857D01*
X41234Y-27871D01*
X41205Y-27885D01*
X41120Y-27885D01*
X41091Y-27871D01*
X41077Y-27857D01*
X40621Y-32414D02*
X40592Y-32400D01*
X40564Y-32371D01*
X40521Y-32328D01*
X40492Y-32314D01*
X40464Y-32314D01*
X40478Y-32385D02*
X40450Y-32371D01*
X40421Y-32342D01*
X40407Y-32285D01*
X40407Y-32185D01*
X40421Y-32128D01*
X40450Y-32100D01*
X40478Y-32085D01*
X40535Y-32085D01*
X40564Y-32100D01*
X40592Y-32128D01*
X40607Y-32185D01*
X40607Y-32285D01*
X40592Y-32342D01*
X40564Y-32371D01*
X40535Y-32385D01*
X40478Y-32385D01*
X40864Y-32185D02*
X40864Y-32385D01*
X40792Y-32071D02*
X40721Y-32285D01*
X40907Y-32285D01*
X47750Y-33157D02*
X47735Y-33171D01*
X47692Y-33185D01*
X47664Y-33185D01*
X47621Y-33171D01*
X47592Y-33142D01*
X47578Y-33114D01*
X47564Y-33057D01*
X47564Y-33014D01*
X47578Y-32957D01*
X47592Y-32928D01*
X47621Y-32900D01*
X47664Y-32885D01*
X47692Y-32885D01*
X47735Y-32900D01*
X47750Y-32914D01*
X48035Y-33185D02*
X47864Y-33185D01*
X47950Y-33185D02*
X47950Y-32885D01*
X47921Y-32928D01*
X47892Y-32957D01*
X47864Y-32971D01*
X47750Y-35257D02*
X47735Y-35271D01*
X47692Y-35285D01*
X47664Y-35285D01*
X47621Y-35271D01*
X47592Y-35242D01*
X47578Y-35214D01*
X47564Y-35157D01*
X47564Y-35114D01*
X47578Y-35057D01*
X47592Y-35028D01*
X47621Y-35000D01*
X47664Y-34985D01*
X47692Y-34985D01*
X47735Y-35000D01*
X47750Y-35014D01*
X47864Y-35014D02*
X47878Y-35000D01*
X47907Y-34985D01*
X47978Y-34985D01*
X48007Y-35000D01*
X48021Y-35014D01*
X48035Y-35042D01*
X48035Y-35071D01*
X48021Y-35114D01*
X47850Y-35285D01*
X48035Y-35285D01*
X45657Y-36450D02*
X45671Y-36464D01*
X45685Y-36507D01*
X45685Y-36535D01*
X45671Y-36578D01*
X45642Y-36607D01*
X45614Y-36621D01*
X45557Y-36635D01*
X45514Y-36635D01*
X45457Y-36621D01*
X45428Y-36607D01*
X45400Y-36578D01*
X45385Y-36535D01*
X45385Y-36507D01*
X45400Y-36464D01*
X45414Y-36450D01*
X45385Y-36350D02*
X45385Y-36164D01*
X45500Y-36264D01*
X45500Y-36221D01*
X45514Y-36192D01*
X45528Y-36178D01*
X45557Y-36164D01*
X45628Y-36164D01*
X45657Y-36178D01*
X45671Y-36192D01*
X45685Y-36221D01*
X45685Y-36307D01*
X45671Y-36335D01*
X45657Y-36350D01*
X44250Y-32257D02*
X44235Y-32271D01*
X44192Y-32285D01*
X44164Y-32285D01*
X44121Y-32271D01*
X44092Y-32242D01*
X44078Y-32214D01*
X44064Y-32157D01*
X44064Y-32114D01*
X44078Y-32057D01*
X44092Y-32028D01*
X44121Y-32000D01*
X44164Y-31985D01*
X44192Y-31985D01*
X44235Y-32000D01*
X44250Y-32014D01*
X44507Y-32085D02*
X44507Y-32285D01*
X44435Y-31971D02*
X44364Y-32185D01*
X44550Y-32185D01*
X41507Y-36317D02*
X41492Y-36331D01*
X41450Y-36345D01*
X41421Y-36345D01*
X41378Y-36331D01*
X41350Y-36302D01*
X41335Y-36274D01*
X41321Y-36217D01*
X41321Y-36174D01*
X41335Y-36117D01*
X41350Y-36088D01*
X41378Y-36060D01*
X41421Y-36045D01*
X41450Y-36045D01*
X41492Y-36060D01*
X41507Y-36074D01*
X41792Y-36345D02*
X41621Y-36345D01*
X41707Y-36345D02*
X41707Y-36045D01*
X41678Y-36088D01*
X41650Y-36117D01*
X41621Y-36131D01*
X41978Y-36045D02*
X42007Y-36045D01*
X42035Y-36060D01*
X42050Y-36074D01*
X42064Y-36102D01*
X42078Y-36160D01*
X42078Y-36231D01*
X42064Y-36288D01*
X42050Y-36317D01*
X42035Y-36331D01*
X42007Y-36345D01*
X41978Y-36345D01*
X41950Y-36331D01*
X41935Y-36317D01*
X41921Y-36288D01*
X41907Y-36231D01*
X41907Y-36160D01*
X41921Y-36102D01*
X41935Y-36074D01*
X41950Y-36060D01*
X41978Y-36045D01*
X40317Y-33857D02*
X40302Y-33871D01*
X40260Y-33885D01*
X40231Y-33885D01*
X40188Y-33871D01*
X40160Y-33842D01*
X40145Y-33814D01*
X40131Y-33757D01*
X40131Y-33714D01*
X40145Y-33657D01*
X40160Y-33628D01*
X40188Y-33600D01*
X40231Y-33585D01*
X40260Y-33585D01*
X40302Y-33600D01*
X40317Y-33614D01*
X40602Y-33885D02*
X40431Y-33885D01*
X40517Y-33885D02*
X40517Y-33585D01*
X40488Y-33628D01*
X40460Y-33657D01*
X40431Y-33671D01*
X40888Y-33885D02*
X40717Y-33885D01*
X40802Y-33885D02*
X40802Y-33585D01*
X40774Y-33628D01*
X40745Y-33657D01*
X40717Y-33671D01*
X39607Y-30857D02*
X39592Y-30871D01*
X39550Y-30885D01*
X39521Y-30885D01*
X39478Y-30871D01*
X39450Y-30842D01*
X39435Y-30814D01*
X39421Y-30757D01*
X39421Y-30714D01*
X39435Y-30657D01*
X39450Y-30628D01*
X39478Y-30600D01*
X39521Y-30585D01*
X39550Y-30585D01*
X39592Y-30600D01*
X39607Y-30614D01*
X39892Y-30885D02*
X39721Y-30885D01*
X39807Y-30885D02*
X39807Y-30585D01*
X39778Y-30628D01*
X39750Y-30657D01*
X39721Y-30671D01*
X40007Y-30614D02*
X40021Y-30600D01*
X40050Y-30585D01*
X40121Y-30585D01*
X40150Y-30600D01*
X40164Y-30614D01*
X40178Y-30642D01*
X40178Y-30671D01*
X40164Y-30714D01*
X39992Y-30885D01*
X40178Y-30885D01*
X46607Y-31407D02*
X46592Y-31421D01*
X46550Y-31435D01*
X46521Y-31435D01*
X46478Y-31421D01*
X46450Y-31392D01*
X46435Y-31364D01*
X46421Y-31307D01*
X46421Y-31264D01*
X46435Y-31207D01*
X46450Y-31178D01*
X46478Y-31150D01*
X46521Y-31135D01*
X46550Y-31135D01*
X46592Y-31150D01*
X46607Y-31164D01*
X46892Y-31435D02*
X46721Y-31435D01*
X46807Y-31435D02*
X46807Y-31135D01*
X46778Y-31178D01*
X46750Y-31207D01*
X46721Y-31221D01*
X46992Y-31135D02*
X47178Y-31135D01*
X47078Y-31250D01*
X47121Y-31250D01*
X47150Y-31264D01*
X47164Y-31278D01*
X47178Y-31307D01*
X47178Y-31378D01*
X47164Y-31407D01*
X47150Y-31421D01*
X47121Y-31435D01*
X47035Y-31435D01*
X47007Y-31421D01*
X46992Y-31407D01*
X39885Y-28021D02*
X39585Y-28021D01*
X39585Y-27950D01*
X39600Y-27907D01*
X39628Y-27878D01*
X39657Y-27864D01*
X39714Y-27850D01*
X39757Y-27850D01*
X39814Y-27864D01*
X39842Y-27878D01*
X39871Y-27907D01*
X39885Y-27950D01*
X39885Y-28021D01*
X39585Y-27750D02*
X39585Y-27564D01*
X39700Y-27664D01*
X39700Y-27621D01*
X39714Y-27592D01*
X39728Y-27578D01*
X39757Y-27564D01*
X39828Y-27564D01*
X39857Y-27578D01*
X39871Y-27592D01*
X39885Y-27621D01*
X39885Y-27707D01*
X39871Y-27735D01*
X39857Y-27750D01*
X41736Y-29584D02*
X41707Y-29570D01*
X41679Y-29541D01*
X41636Y-29498D01*
X41607Y-29484D01*
X41579Y-29484D01*
X41593Y-29555D02*
X41565Y-29541D01*
X41536Y-29512D01*
X41522Y-29455D01*
X41522Y-29355D01*
X41536Y-29298D01*
X41565Y-29270D01*
X41593Y-29255D01*
X41650Y-29255D01*
X41679Y-29270D01*
X41707Y-29298D01*
X41722Y-29355D01*
X41722Y-29455D01*
X41707Y-29512D01*
X41679Y-29541D01*
X41650Y-29555D01*
X41593Y-29555D01*
X41993Y-29255D02*
X41850Y-29255D01*
X41836Y-29398D01*
X41850Y-29384D01*
X41879Y-29370D01*
X41950Y-29370D01*
X41979Y-29384D01*
X41993Y-29398D01*
X42007Y-29427D01*
X42007Y-29498D01*
X41993Y-29527D01*
X41979Y-29541D01*
X41950Y-29555D01*
X41879Y-29555D01*
X41850Y-29541D01*
X41836Y-29527D01*
X42585Y-34880D02*
X42442Y-34980D01*
X42585Y-35051D02*
X42285Y-35051D01*
X42285Y-34937D01*
X42300Y-34908D01*
X42314Y-34894D01*
X42342Y-34880D01*
X42385Y-34880D01*
X42414Y-34894D01*
X42428Y-34908D01*
X42442Y-34937D01*
X42442Y-35051D01*
X42285Y-34780D02*
X42285Y-34580D01*
X42585Y-34708D01*
X42665Y-32922D02*
X42522Y-33022D01*
X42665Y-33094D02*
X42365Y-33094D01*
X42365Y-32980D01*
X42380Y-32951D01*
X42394Y-32937D01*
X42422Y-32922D01*
X42465Y-32922D01*
X42494Y-32937D01*
X42508Y-32951D01*
X42522Y-32980D01*
X42522Y-33094D01*
X42665Y-32637D02*
X42665Y-32808D01*
X42665Y-32722D02*
X42365Y-32722D01*
X42408Y-32751D01*
X42437Y-32780D01*
X42451Y-32808D01*
X42365Y-32537D02*
X42365Y-32351D01*
X42480Y-32451D01*
X42480Y-32408D01*
X42494Y-32380D01*
X42508Y-32365D01*
X42537Y-32351D01*
X42608Y-32351D01*
X42637Y-32365D01*
X42651Y-32380D01*
X42665Y-32408D01*
X42665Y-32494D01*
X42651Y-32522D01*
X42637Y-32537D01*
X40707Y-28535D02*
X40607Y-28392D01*
X40535Y-28535D02*
X40535Y-28235D01*
X40650Y-28235D01*
X40678Y-28250D01*
X40692Y-28264D01*
X40707Y-28292D01*
X40707Y-28335D01*
X40692Y-28364D01*
X40678Y-28378D01*
X40650Y-28392D01*
X40535Y-28392D01*
X40992Y-28535D02*
X40821Y-28535D01*
X40907Y-28535D02*
X40907Y-28235D01*
X40878Y-28278D01*
X40850Y-28307D01*
X40821Y-28321D01*
X41264Y-28235D02*
X41121Y-28235D01*
X41107Y-28378D01*
X41121Y-28364D01*
X41150Y-28350D01*
X41221Y-28350D01*
X41250Y-28364D01*
X41264Y-28378D01*
X41278Y-28407D01*
X41278Y-28478D01*
X41264Y-28507D01*
X41250Y-28521D01*
X41221Y-28535D01*
X41150Y-28535D01*
X41121Y-28521D01*
X41107Y-28507D01*
X39607Y-31385D02*
X39507Y-31242D01*
X39435Y-31385D02*
X39435Y-31085D01*
X39550Y-31085D01*
X39578Y-31100D01*
X39592Y-31114D01*
X39607Y-31142D01*
X39607Y-31185D01*
X39592Y-31214D01*
X39578Y-31228D01*
X39550Y-31242D01*
X39435Y-31242D01*
X39892Y-31385D02*
X39721Y-31385D01*
X39807Y-31385D02*
X39807Y-31085D01*
X39778Y-31128D01*
X39750Y-31157D01*
X39721Y-31171D01*
X39992Y-31085D02*
X40192Y-31085D01*
X40064Y-31385D01*
X45501Y-41635D02*
X45501Y-41878D01*
X45515Y-41907D01*
X45530Y-41921D01*
X45558Y-41935D01*
X45615Y-41935D01*
X45644Y-41921D01*
X45658Y-41907D01*
X45672Y-41878D01*
X45672Y-41635D01*
X45972Y-41935D02*
X45801Y-41935D01*
X45887Y-41935D02*
X45887Y-41635D01*
X45858Y-41678D01*
X45830Y-41707D01*
X45801Y-41721D01*
X38935Y-30642D02*
X38792Y-30742D01*
X38935Y-30814D02*
X38635Y-30814D01*
X38635Y-30700D01*
X38650Y-30671D01*
X38664Y-30657D01*
X38692Y-30642D01*
X38735Y-30642D01*
X38764Y-30657D01*
X38778Y-30671D01*
X38792Y-30700D01*
X38792Y-30814D01*
X38935Y-30357D02*
X38935Y-30528D01*
X38935Y-30442D02*
X38635Y-30442D01*
X38678Y-30471D01*
X38707Y-30500D01*
X38721Y-30528D01*
X38935Y-30071D02*
X38935Y-30242D01*
X38935Y-30157D02*
X38635Y-30157D01*
X38678Y-30185D01*
X38707Y-30214D01*
X38721Y-30242D01*
X40077Y-34835D02*
X39977Y-34692D01*
X39905Y-34835D02*
X39905Y-34535D01*
X40020Y-34535D01*
X40048Y-34550D01*
X40062Y-34564D01*
X40077Y-34592D01*
X40077Y-34635D01*
X40062Y-34664D01*
X40048Y-34678D01*
X40020Y-34692D01*
X39905Y-34692D01*
X40362Y-34835D02*
X40191Y-34835D01*
X40277Y-34835D02*
X40277Y-34535D01*
X40248Y-34578D01*
X40220Y-34607D01*
X40191Y-34621D01*
X40548Y-34535D02*
X40577Y-34535D01*
X40605Y-34550D01*
X40620Y-34564D01*
X40634Y-34592D01*
X40648Y-34650D01*
X40648Y-34721D01*
X40634Y-34778D01*
X40620Y-34807D01*
X40605Y-34821D01*
X40577Y-34835D01*
X40548Y-34835D01*
X40520Y-34821D01*
X40505Y-34807D01*
X40491Y-34778D01*
X40477Y-34721D01*
X40477Y-34650D01*
X40491Y-34592D01*
X40505Y-34564D01*
X40520Y-34550D01*
X40548Y-34535D01*
X42585Y-29992D02*
X42442Y-30092D01*
X42585Y-30164D02*
X42285Y-30164D01*
X42285Y-30050D01*
X42300Y-30021D01*
X42314Y-30007D01*
X42342Y-29992D01*
X42385Y-29992D01*
X42414Y-30007D01*
X42428Y-30021D01*
X42442Y-30050D01*
X42442Y-30164D01*
X42585Y-29707D02*
X42585Y-29878D01*
X42585Y-29792D02*
X42285Y-29792D01*
X42328Y-29821D01*
X42357Y-29850D01*
X42371Y-29878D01*
X42314Y-29592D02*
X42300Y-29578D01*
X42285Y-29550D01*
X42285Y-29478D01*
X42300Y-29450D01*
X42314Y-29435D01*
X42342Y-29421D01*
X42371Y-29421D01*
X42414Y-29435D01*
X42585Y-29607D01*
X42585Y-29421D01*
X43135Y-28142D02*
X42992Y-28242D01*
X43135Y-28314D02*
X42835Y-28314D01*
X42835Y-28200D01*
X42850Y-28171D01*
X42864Y-28157D01*
X42892Y-28142D01*
X42935Y-28142D01*
X42964Y-28157D01*
X42978Y-28171D01*
X42992Y-28200D01*
X42992Y-28314D01*
X43135Y-27857D02*
X43135Y-28028D01*
X43135Y-27942D02*
X42835Y-27942D01*
X42878Y-27971D01*
X42907Y-28000D01*
X42921Y-28028D01*
X42935Y-27600D02*
X43135Y-27600D01*
X42821Y-27671D02*
X43035Y-27742D01*
X43035Y-27557D01*
X43935Y-28442D02*
X43792Y-28542D01*
X43935Y-28614D02*
X43635Y-28614D01*
X43635Y-28500D01*
X43650Y-28471D01*
X43664Y-28457D01*
X43692Y-28442D01*
X43735Y-28442D01*
X43764Y-28457D01*
X43778Y-28471D01*
X43792Y-28500D01*
X43792Y-28614D01*
X43935Y-28157D02*
X43935Y-28328D01*
X43935Y-28242D02*
X43635Y-28242D01*
X43678Y-28271D01*
X43707Y-28300D01*
X43721Y-28328D01*
X43635Y-27900D02*
X43635Y-27957D01*
X43650Y-27985D01*
X43664Y-28000D01*
X43707Y-28028D01*
X43764Y-28042D01*
X43878Y-28042D01*
X43907Y-28028D01*
X43921Y-28014D01*
X43935Y-27985D01*
X43935Y-27928D01*
X43921Y-27900D01*
X43907Y-27885D01*
X43878Y-27871D01*
X43807Y-27871D01*
X43778Y-27885D01*
X43764Y-27900D01*
X43750Y-27928D01*
X43750Y-27985D01*
X43764Y-28014D01*
X43778Y-28028D01*
X43807Y-28042D01*
X41935Y-38542D02*
X41792Y-38642D01*
X41935Y-38714D02*
X41635Y-38714D01*
X41635Y-38600D01*
X41650Y-38571D01*
X41664Y-38557D01*
X41692Y-38542D01*
X41735Y-38542D01*
X41764Y-38557D01*
X41778Y-38571D01*
X41792Y-38600D01*
X41792Y-38714D01*
X41664Y-38428D02*
X41650Y-38414D01*
X41635Y-38385D01*
X41635Y-38314D01*
X41650Y-38285D01*
X41664Y-38271D01*
X41692Y-38257D01*
X41721Y-38257D01*
X41764Y-38271D01*
X41935Y-38442D01*
X41935Y-38257D01*
X41635Y-38071D02*
X41635Y-38042D01*
X41650Y-38014D01*
X41664Y-38000D01*
X41692Y-37985D01*
X41750Y-37971D01*
X41821Y-37971D01*
X41878Y-37985D01*
X41907Y-38000D01*
X41921Y-38014D01*
X41935Y-38042D01*
X41935Y-38071D01*
X41921Y-38100D01*
X41907Y-38114D01*
X41878Y-38128D01*
X41821Y-38142D01*
X41750Y-38142D01*
X41692Y-38128D01*
X41664Y-38114D01*
X41650Y-38100D01*
X41635Y-38071D01*
X45685Y-38542D02*
X45542Y-38642D01*
X45685Y-38714D02*
X45385Y-38714D01*
X45385Y-38600D01*
X45400Y-38571D01*
X45414Y-38557D01*
X45442Y-38542D01*
X45485Y-38542D01*
X45514Y-38557D01*
X45528Y-38571D01*
X45542Y-38600D01*
X45542Y-38714D01*
X45414Y-38428D02*
X45400Y-38414D01*
X45385Y-38385D01*
X45385Y-38314D01*
X45400Y-38285D01*
X45414Y-38271D01*
X45442Y-38257D01*
X45471Y-38257D01*
X45514Y-38271D01*
X45685Y-38442D01*
X45685Y-38257D01*
X45685Y-37971D02*
X45685Y-38142D01*
X45685Y-38057D02*
X45385Y-38057D01*
X45428Y-38085D01*
X45457Y-38114D01*
X45471Y-38142D01*
X41767Y-40032D02*
X41781Y-40047D01*
X41795Y-40090D01*
X41795Y-40118D01*
X41781Y-40161D01*
X41752Y-40190D01*
X41724Y-40204D01*
X41667Y-40218D01*
X41624Y-40218D01*
X41567Y-40204D01*
X41538Y-40190D01*
X41510Y-40161D01*
X41495Y-40118D01*
X41495Y-40090D01*
X41510Y-40047D01*
X41524Y-40032D01*
X41524Y-39918D02*
X41510Y-39904D01*
X41495Y-39875D01*
X41495Y-39804D01*
X41510Y-39775D01*
X41524Y-39761D01*
X41552Y-39747D01*
X41581Y-39747D01*
X41624Y-39761D01*
X41795Y-39932D01*
X41795Y-39747D01*
X41524Y-39632D02*
X41510Y-39618D01*
X41495Y-39590D01*
X41495Y-39518D01*
X41510Y-39490D01*
X41524Y-39475D01*
X41552Y-39461D01*
X41581Y-39461D01*
X41624Y-39475D01*
X41795Y-39647D01*
X41795Y-39461D01*
G54D14*
X48044Y-42110D02*
X48044Y-41710D01*
X48197Y-41710D01*
X48235Y-41730D01*
X48254Y-41749D01*
X48273Y-41787D01*
X48273Y-41844D01*
X48254Y-41882D01*
X48235Y-41901D01*
X48197Y-41920D01*
X48044Y-41920D01*
X48616Y-41710D02*
X48540Y-41710D01*
X48501Y-41730D01*
X48482Y-41749D01*
X48444Y-41806D01*
X48425Y-41882D01*
X48425Y-42034D01*
X48444Y-42072D01*
X48463Y-42091D01*
X48501Y-42110D01*
X48578Y-42110D01*
X48616Y-42091D01*
X48635Y-42072D01*
X48654Y-42034D01*
X48654Y-41939D01*
X48635Y-41901D01*
X48616Y-41882D01*
X48578Y-41863D01*
X48501Y-41863D01*
X48463Y-41882D01*
X48444Y-41901D01*
X48425Y-41939D01*
X46364Y-42110D02*
X46364Y-41710D01*
X46517Y-41710D01*
X46555Y-41730D01*
X46574Y-41749D01*
X46593Y-41787D01*
X46593Y-41844D01*
X46574Y-41882D01*
X46555Y-41901D01*
X46517Y-41920D01*
X46364Y-41920D01*
X46726Y-41710D02*
X46993Y-41710D01*
X46821Y-42110D01*
X38364Y-42110D02*
X38364Y-41710D01*
X38517Y-41710D01*
X38555Y-41730D01*
X38574Y-41749D01*
X38593Y-41787D01*
X38593Y-41844D01*
X38574Y-41882D01*
X38555Y-41901D01*
X38517Y-41920D01*
X38364Y-41920D01*
X38936Y-41844D02*
X38936Y-42110D01*
X38840Y-41691D02*
X38745Y-41977D01*
X38993Y-41977D01*
X40044Y-42110D02*
X40044Y-41710D01*
X40197Y-41710D01*
X40235Y-41730D01*
X40254Y-41749D01*
X40273Y-41787D01*
X40273Y-41844D01*
X40254Y-41882D01*
X40235Y-41901D01*
X40197Y-41920D01*
X40044Y-41920D01*
X40635Y-41710D02*
X40444Y-41710D01*
X40425Y-41901D01*
X40444Y-41882D01*
X40482Y-41863D01*
X40578Y-41863D01*
X40616Y-41882D01*
X40635Y-41901D01*
X40654Y-41939D01*
X40654Y-42034D01*
X40635Y-42072D01*
X40616Y-42091D01*
X40578Y-42110D01*
X40482Y-42110D01*
X40444Y-42091D01*
X40425Y-42072D01*
G54D17*
X48287Y-36727D02*
X48272Y-36741D01*
X48230Y-36755D01*
X48201Y-36755D01*
X48158Y-36741D01*
X48130Y-36712D01*
X48115Y-36684D01*
X48101Y-36627D01*
X48101Y-36584D01*
X48115Y-36527D01*
X48130Y-36498D01*
X48158Y-36470D01*
X48201Y-36455D01*
X48230Y-36455D01*
X48272Y-36470D01*
X48287Y-36484D01*
X48401Y-36484D02*
X48415Y-36470D01*
X48444Y-36455D01*
X48515Y-36455D01*
X48544Y-36470D01*
X48558Y-36484D01*
X48572Y-36512D01*
X48572Y-36541D01*
X48558Y-36584D01*
X48387Y-36755D01*
X48572Y-36755D01*
X48672Y-36455D02*
X48858Y-36455D01*
X48758Y-36570D01*
X48801Y-36570D01*
X48830Y-36584D01*
X48844Y-36598D01*
X48858Y-36627D01*
X48858Y-36698D01*
X48844Y-36727D01*
X48830Y-36741D01*
X48801Y-36755D01*
X48715Y-36755D01*
X48687Y-36741D01*
X48672Y-36727D01*
X42517Y-37392D02*
X42531Y-37407D01*
X42545Y-37450D01*
X42545Y-37478D01*
X42531Y-37521D01*
X42502Y-37550D01*
X42474Y-37564D01*
X42417Y-37578D01*
X42374Y-37578D01*
X42317Y-37564D01*
X42288Y-37550D01*
X42260Y-37521D01*
X42245Y-37478D01*
X42245Y-37450D01*
X42260Y-37407D01*
X42274Y-37392D01*
X42274Y-37278D02*
X42260Y-37264D01*
X42245Y-37235D01*
X42245Y-37164D01*
X42260Y-37135D01*
X42274Y-37121D01*
X42302Y-37107D01*
X42331Y-37107D01*
X42374Y-37121D01*
X42545Y-37292D01*
X42545Y-37107D01*
X42245Y-36921D02*
X42245Y-36892D01*
X42260Y-36864D01*
X42274Y-36850D01*
X42302Y-36835D01*
X42360Y-36821D01*
X42431Y-36821D01*
X42488Y-36835D01*
X42517Y-36850D01*
X42531Y-36864D01*
X42545Y-36892D01*
X42545Y-36921D01*
X42531Y-36950D01*
X42517Y-36964D01*
X42488Y-36978D01*
X42431Y-36992D01*
X42360Y-36992D01*
X42302Y-36978D01*
X42274Y-36964D01*
X42260Y-36950D01*
X42245Y-36921D01*
X45037Y-37392D02*
X45051Y-37407D01*
X45065Y-37450D01*
X45065Y-37478D01*
X45051Y-37521D01*
X45022Y-37550D01*
X44994Y-37564D01*
X44937Y-37578D01*
X44894Y-37578D01*
X44837Y-37564D01*
X44808Y-37550D01*
X44780Y-37521D01*
X44765Y-37478D01*
X44765Y-37450D01*
X44780Y-37407D01*
X44794Y-37392D01*
X44794Y-37278D02*
X44780Y-37264D01*
X44765Y-37235D01*
X44765Y-37164D01*
X44780Y-37135D01*
X44794Y-37121D01*
X44822Y-37107D01*
X44851Y-37107D01*
X44894Y-37121D01*
X45065Y-37292D01*
X45065Y-37107D01*
X45065Y-36821D02*
X45065Y-36992D01*
X45065Y-36907D02*
X44765Y-36907D01*
X44808Y-36935D01*
X44837Y-36964D01*
X44851Y-36992D01*
M02*
