G04 (created by PCBNEW (2013-mar-13)-stable) date Fri 09 Oct 2015 12:04:18 PM CEST*
%MOIN*%
G04 Gerber Fmt 3.4, Leading zero omitted, Abs format*
%FSLAX34Y34*%
G01*
G70*
G90*
G04 APERTURE LIST*
%ADD10C,0.005906*%
%ADD11R,0.060000X0.060000*%
%ADD12C,0.060000*%
%ADD13C,0.051181*%
%ADD14C,0.028000*%
%ADD15C,0.008000*%
%ADD16C,0.020000*%
%ADD17C,0.006000*%
G04 APERTURE END LIST*
G54D10*
G54D11*
X45000Y-26000D03*
G54D12*
X46000Y-26000D03*
X47000Y-26000D03*
G54D11*
X40000Y-26000D03*
G54D12*
X41000Y-26000D03*
X42000Y-26000D03*
G54D11*
X48000Y-41000D03*
G54D12*
X48000Y-40000D03*
X48000Y-39000D03*
X48000Y-38000D03*
G54D11*
X47000Y-41000D03*
G54D12*
X47000Y-40000D03*
X47000Y-39000D03*
X47000Y-38000D03*
G54D11*
X39000Y-41000D03*
G54D12*
X39000Y-40000D03*
X39000Y-39000D03*
X39000Y-38000D03*
G54D11*
X40000Y-41000D03*
G54D12*
X40000Y-40000D03*
X40000Y-39000D03*
X40000Y-38000D03*
G54D13*
X43150Y-38100D03*
X43150Y-36100D03*
X44150Y-38100D03*
X44150Y-36100D03*
G54D14*
X48200Y-25700D03*
X47700Y-25700D03*
X48700Y-25700D03*
X48700Y-34200D03*
X48700Y-33700D03*
X48700Y-33200D03*
X48700Y-32700D03*
X48700Y-32200D03*
X48700Y-31700D03*
X48700Y-31200D03*
X48700Y-30700D03*
X48700Y-30200D03*
X48700Y-29700D03*
X48700Y-29200D03*
X48700Y-28700D03*
X48700Y-28200D03*
X48700Y-27700D03*
X48700Y-27200D03*
X48700Y-26700D03*
X48700Y-26200D03*
X45500Y-39690D03*
X43690Y-39990D03*
X48600Y-37540D03*
X43340Y-39990D03*
X41050Y-39200D03*
X40770Y-40720D03*
X42180Y-39200D03*
X39300Y-25700D03*
X38300Y-25700D03*
X38800Y-25700D03*
X38300Y-27700D03*
X38300Y-27200D03*
X38300Y-26700D03*
X38300Y-26200D03*
X44250Y-25700D03*
X42750Y-25700D03*
X43750Y-25700D03*
X43250Y-25700D03*
G54D15*
X48700Y-25700D02*
X48700Y-26200D01*
X48700Y-33700D02*
X48700Y-34200D01*
X48700Y-32700D02*
X48700Y-33200D01*
X48700Y-31700D02*
X48700Y-32200D01*
X48700Y-30700D02*
X48700Y-31200D01*
X48700Y-29700D02*
X48700Y-30200D01*
X48700Y-28700D02*
X48700Y-29200D01*
X48700Y-27700D02*
X48700Y-28200D01*
X48700Y-26700D02*
X48700Y-27200D01*
X45200Y-39990D02*
X45500Y-39690D01*
X43690Y-39990D02*
X45200Y-39990D01*
X48000Y-41000D02*
X48000Y-41600D01*
X46550Y-41740D02*
X46410Y-41600D01*
X47860Y-41740D02*
X46550Y-41740D01*
X48000Y-41600D02*
X47860Y-41740D01*
X42180Y-39200D02*
X42550Y-39200D01*
X42550Y-39200D02*
X43340Y-39990D01*
X43340Y-39990D02*
X43340Y-40400D01*
X43520Y-40580D02*
X45110Y-40580D01*
X43340Y-40400D02*
X43520Y-40580D01*
X46130Y-41600D02*
X46410Y-41600D01*
X45110Y-40580D02*
X46130Y-41600D01*
X41050Y-39200D02*
X41050Y-40440D01*
X42180Y-39200D02*
X41050Y-39200D01*
X41050Y-40440D02*
X40770Y-40720D01*
G54D16*
X46325Y-26675D02*
X40675Y-26675D01*
X47000Y-26000D02*
X46325Y-26675D01*
X40675Y-26675D02*
X40000Y-26000D01*
G54D15*
X40575Y-25575D02*
X39425Y-25575D01*
X39425Y-25575D02*
X39300Y-25700D01*
X40575Y-25575D02*
X41000Y-26000D01*
X38300Y-27200D02*
X38300Y-27700D01*
X38300Y-26200D02*
X38300Y-26700D01*
X46000Y-26000D02*
X46425Y-25575D01*
X45575Y-25575D02*
X44375Y-25575D01*
X44375Y-25575D02*
X44250Y-25700D01*
X46000Y-26000D02*
X45575Y-25575D01*
X41425Y-25575D02*
X42625Y-25575D01*
X41425Y-25575D02*
X41000Y-26000D01*
X42750Y-25700D02*
X42625Y-25575D01*
G54D10*
G36*
X48820Y-42170D02*
X48410Y-42170D01*
X48410Y-39918D01*
X48410Y-38918D01*
X48410Y-37918D01*
X48347Y-37768D01*
X48232Y-37652D01*
X48081Y-37590D01*
X47918Y-37589D01*
X47768Y-37652D01*
X47652Y-37767D01*
X47590Y-37918D01*
X47589Y-38081D01*
X47652Y-38231D01*
X47767Y-38347D01*
X47918Y-38409D01*
X48081Y-38410D01*
X48231Y-38347D01*
X48347Y-38232D01*
X48409Y-38081D01*
X48410Y-37918D01*
X48410Y-38918D01*
X48347Y-38768D01*
X48232Y-38652D01*
X48081Y-38590D01*
X47918Y-38589D01*
X47768Y-38652D01*
X47652Y-38767D01*
X47590Y-38918D01*
X47589Y-39081D01*
X47652Y-39231D01*
X47767Y-39347D01*
X47918Y-39409D01*
X48081Y-39410D01*
X48231Y-39347D01*
X48347Y-39232D01*
X48409Y-39081D01*
X48410Y-38918D01*
X48410Y-39918D01*
X48347Y-39768D01*
X48232Y-39652D01*
X48081Y-39590D01*
X47918Y-39589D01*
X47768Y-39652D01*
X47652Y-39767D01*
X47590Y-39918D01*
X47589Y-40081D01*
X47652Y-40231D01*
X47767Y-40347D01*
X47918Y-40409D01*
X48081Y-40410D01*
X48231Y-40347D01*
X48347Y-40232D01*
X48409Y-40081D01*
X48410Y-39918D01*
X48410Y-42170D01*
X48390Y-42170D01*
X48390Y-41317D01*
X48390Y-41092D01*
X48390Y-40907D01*
X48390Y-40682D01*
X48376Y-40649D01*
X48350Y-40623D01*
X48317Y-40610D01*
X48282Y-40610D01*
X48092Y-40610D01*
X48070Y-40632D01*
X48070Y-40930D01*
X48367Y-40930D01*
X48390Y-40907D01*
X48390Y-41092D01*
X48367Y-41070D01*
X48070Y-41070D01*
X48070Y-41367D01*
X48092Y-41390D01*
X48282Y-41390D01*
X48317Y-41390D01*
X48350Y-41376D01*
X48376Y-41350D01*
X48390Y-41317D01*
X48390Y-42170D01*
X47930Y-42170D01*
X47930Y-41367D01*
X47930Y-41070D01*
X47930Y-40930D01*
X47930Y-40632D01*
X47907Y-40610D01*
X47717Y-40610D01*
X47682Y-40610D01*
X47649Y-40623D01*
X47623Y-40649D01*
X47610Y-40682D01*
X47610Y-40907D01*
X47632Y-40930D01*
X47930Y-40930D01*
X47930Y-41070D01*
X47632Y-41070D01*
X47610Y-41092D01*
X47610Y-41317D01*
X47623Y-41350D01*
X47649Y-41376D01*
X47682Y-41390D01*
X47717Y-41390D01*
X47907Y-41390D01*
X47930Y-41367D01*
X47930Y-42170D01*
X47410Y-42170D01*
X47410Y-39918D01*
X47410Y-38918D01*
X47410Y-37918D01*
X47347Y-37768D01*
X47232Y-37652D01*
X47081Y-37590D01*
X46918Y-37589D01*
X46768Y-37652D01*
X46652Y-37767D01*
X46590Y-37918D01*
X46589Y-38081D01*
X46652Y-38231D01*
X46767Y-38347D01*
X46918Y-38409D01*
X47081Y-38410D01*
X47231Y-38347D01*
X47347Y-38232D01*
X47409Y-38081D01*
X47410Y-37918D01*
X47410Y-38918D01*
X47347Y-38768D01*
X47232Y-38652D01*
X47081Y-38590D01*
X46918Y-38589D01*
X46768Y-38652D01*
X46652Y-38767D01*
X46590Y-38918D01*
X46589Y-39081D01*
X46652Y-39231D01*
X46767Y-39347D01*
X46918Y-39409D01*
X47081Y-39410D01*
X47231Y-39347D01*
X47347Y-39232D01*
X47409Y-39081D01*
X47410Y-38918D01*
X47410Y-39918D01*
X47347Y-39768D01*
X47232Y-39652D01*
X47081Y-39590D01*
X46918Y-39589D01*
X46768Y-39652D01*
X46652Y-39767D01*
X46590Y-39918D01*
X46589Y-40081D01*
X46652Y-40231D01*
X46767Y-40347D01*
X46918Y-40409D01*
X47081Y-40410D01*
X47231Y-40347D01*
X47347Y-40232D01*
X47409Y-40081D01*
X47410Y-39918D01*
X47410Y-42170D01*
X47410Y-42170D01*
X47410Y-41321D01*
X47410Y-41278D01*
X47410Y-40678D01*
X47393Y-40637D01*
X47362Y-40606D01*
X47321Y-40590D01*
X47278Y-40590D01*
X46678Y-40590D01*
X46637Y-40606D01*
X46606Y-40637D01*
X46590Y-40678D01*
X46590Y-40721D01*
X46590Y-41321D01*
X46606Y-41362D01*
X46637Y-41393D01*
X46678Y-41410D01*
X46721Y-41410D01*
X47321Y-41410D01*
X47362Y-41393D01*
X47393Y-41362D01*
X47410Y-41321D01*
X47410Y-42170D01*
X45750Y-42170D01*
X45750Y-39640D01*
X45712Y-39548D01*
X45641Y-39478D01*
X45549Y-39440D01*
X45450Y-39439D01*
X45358Y-39477D01*
X45288Y-39548D01*
X45250Y-39640D01*
X45249Y-39727D01*
X45137Y-39840D01*
X43893Y-39840D01*
X43831Y-39778D01*
X43739Y-39740D01*
X43640Y-39739D01*
X43548Y-39777D01*
X43478Y-39848D01*
X43440Y-39940D01*
X43439Y-40039D01*
X43477Y-40131D01*
X43548Y-40201D01*
X43640Y-40239D01*
X43739Y-40240D01*
X43831Y-40202D01*
X43893Y-40140D01*
X45200Y-40140D01*
X45257Y-40128D01*
X45257Y-40128D01*
X45306Y-40096D01*
X45462Y-39939D01*
X45549Y-39940D01*
X45641Y-39902D01*
X45711Y-39831D01*
X45749Y-39739D01*
X45750Y-39640D01*
X45750Y-42170D01*
X40410Y-42170D01*
X40410Y-39918D01*
X40410Y-38918D01*
X40410Y-37918D01*
X40347Y-37768D01*
X40232Y-37652D01*
X40081Y-37590D01*
X39918Y-37589D01*
X39768Y-37652D01*
X39652Y-37767D01*
X39590Y-37918D01*
X39589Y-38081D01*
X39652Y-38231D01*
X39767Y-38347D01*
X39918Y-38409D01*
X40081Y-38410D01*
X40231Y-38347D01*
X40347Y-38232D01*
X40409Y-38081D01*
X40410Y-37918D01*
X40410Y-38918D01*
X40347Y-38768D01*
X40232Y-38652D01*
X40081Y-38590D01*
X39918Y-38589D01*
X39768Y-38652D01*
X39652Y-38767D01*
X39590Y-38918D01*
X39589Y-39081D01*
X39652Y-39231D01*
X39767Y-39347D01*
X39918Y-39409D01*
X40081Y-39410D01*
X40231Y-39347D01*
X40347Y-39232D01*
X40409Y-39081D01*
X40410Y-38918D01*
X40410Y-39918D01*
X40347Y-39768D01*
X40232Y-39652D01*
X40081Y-39590D01*
X39918Y-39589D01*
X39768Y-39652D01*
X39652Y-39767D01*
X39590Y-39918D01*
X39589Y-40081D01*
X39652Y-40231D01*
X39767Y-40347D01*
X39918Y-40409D01*
X40081Y-40410D01*
X40231Y-40347D01*
X40347Y-40232D01*
X40409Y-40081D01*
X40410Y-39918D01*
X40410Y-42170D01*
X40410Y-42170D01*
X40410Y-41321D01*
X40410Y-41278D01*
X40410Y-40678D01*
X40393Y-40637D01*
X40362Y-40606D01*
X40321Y-40590D01*
X40278Y-40590D01*
X39678Y-40590D01*
X39637Y-40606D01*
X39606Y-40637D01*
X39590Y-40678D01*
X39590Y-40721D01*
X39590Y-41321D01*
X39606Y-41362D01*
X39637Y-41393D01*
X39678Y-41410D01*
X39721Y-41410D01*
X40321Y-41410D01*
X40362Y-41393D01*
X40393Y-41362D01*
X40410Y-41321D01*
X40410Y-42170D01*
X39410Y-42170D01*
X39410Y-39918D01*
X39410Y-38918D01*
X39410Y-37918D01*
X39347Y-37768D01*
X39232Y-37652D01*
X39081Y-37590D01*
X38918Y-37589D01*
X38768Y-37652D01*
X38652Y-37767D01*
X38590Y-37918D01*
X38589Y-38081D01*
X38652Y-38231D01*
X38767Y-38347D01*
X38918Y-38409D01*
X39081Y-38410D01*
X39231Y-38347D01*
X39347Y-38232D01*
X39409Y-38081D01*
X39410Y-37918D01*
X39410Y-38918D01*
X39347Y-38768D01*
X39232Y-38652D01*
X39081Y-38590D01*
X38918Y-38589D01*
X38768Y-38652D01*
X38652Y-38767D01*
X38590Y-38918D01*
X38589Y-39081D01*
X38652Y-39231D01*
X38767Y-39347D01*
X38918Y-39409D01*
X39081Y-39410D01*
X39231Y-39347D01*
X39347Y-39232D01*
X39409Y-39081D01*
X39410Y-38918D01*
X39410Y-39918D01*
X39347Y-39768D01*
X39232Y-39652D01*
X39081Y-39590D01*
X38918Y-39589D01*
X38768Y-39652D01*
X38652Y-39767D01*
X38590Y-39918D01*
X38589Y-40081D01*
X38652Y-40231D01*
X38767Y-40347D01*
X38918Y-40409D01*
X39081Y-40410D01*
X39231Y-40347D01*
X39347Y-40232D01*
X39409Y-40081D01*
X39410Y-39918D01*
X39410Y-42170D01*
X39410Y-42170D01*
X39410Y-41321D01*
X39410Y-41278D01*
X39410Y-40678D01*
X39393Y-40637D01*
X39362Y-40606D01*
X39321Y-40590D01*
X39278Y-40590D01*
X38678Y-40590D01*
X38637Y-40606D01*
X38606Y-40637D01*
X38590Y-40678D01*
X38590Y-40721D01*
X38590Y-41321D01*
X38606Y-41362D01*
X38637Y-41393D01*
X38678Y-41410D01*
X38721Y-41410D01*
X39321Y-41410D01*
X39362Y-41393D01*
X39393Y-41362D01*
X39410Y-41321D01*
X39410Y-42170D01*
X38179Y-42170D01*
X38179Y-35722D01*
X39837Y-37380D01*
X40537Y-37380D01*
X41137Y-37980D01*
X41900Y-37980D01*
X41900Y-38480D01*
X45420Y-38480D01*
X45420Y-37980D01*
X45862Y-37980D01*
X46462Y-37380D01*
X47162Y-37380D01*
X48820Y-35722D01*
X48820Y-42170D01*
X48820Y-42170D01*
G37*
G54D17*
X48820Y-42170D02*
X48410Y-42170D01*
X48410Y-39918D01*
X48410Y-38918D01*
X48410Y-37918D01*
X48347Y-37768D01*
X48232Y-37652D01*
X48081Y-37590D01*
X47918Y-37589D01*
X47768Y-37652D01*
X47652Y-37767D01*
X47590Y-37918D01*
X47589Y-38081D01*
X47652Y-38231D01*
X47767Y-38347D01*
X47918Y-38409D01*
X48081Y-38410D01*
X48231Y-38347D01*
X48347Y-38232D01*
X48409Y-38081D01*
X48410Y-37918D01*
X48410Y-38918D01*
X48347Y-38768D01*
X48232Y-38652D01*
X48081Y-38590D01*
X47918Y-38589D01*
X47768Y-38652D01*
X47652Y-38767D01*
X47590Y-38918D01*
X47589Y-39081D01*
X47652Y-39231D01*
X47767Y-39347D01*
X47918Y-39409D01*
X48081Y-39410D01*
X48231Y-39347D01*
X48347Y-39232D01*
X48409Y-39081D01*
X48410Y-38918D01*
X48410Y-39918D01*
X48347Y-39768D01*
X48232Y-39652D01*
X48081Y-39590D01*
X47918Y-39589D01*
X47768Y-39652D01*
X47652Y-39767D01*
X47590Y-39918D01*
X47589Y-40081D01*
X47652Y-40231D01*
X47767Y-40347D01*
X47918Y-40409D01*
X48081Y-40410D01*
X48231Y-40347D01*
X48347Y-40232D01*
X48409Y-40081D01*
X48410Y-39918D01*
X48410Y-42170D01*
X48390Y-42170D01*
X48390Y-41317D01*
X48390Y-41092D01*
X48390Y-40907D01*
X48390Y-40682D01*
X48376Y-40649D01*
X48350Y-40623D01*
X48317Y-40610D01*
X48282Y-40610D01*
X48092Y-40610D01*
X48070Y-40632D01*
X48070Y-40930D01*
X48367Y-40930D01*
X48390Y-40907D01*
X48390Y-41092D01*
X48367Y-41070D01*
X48070Y-41070D01*
X48070Y-41367D01*
X48092Y-41390D01*
X48282Y-41390D01*
X48317Y-41390D01*
X48350Y-41376D01*
X48376Y-41350D01*
X48390Y-41317D01*
X48390Y-42170D01*
X47930Y-42170D01*
X47930Y-41367D01*
X47930Y-41070D01*
X47930Y-40930D01*
X47930Y-40632D01*
X47907Y-40610D01*
X47717Y-40610D01*
X47682Y-40610D01*
X47649Y-40623D01*
X47623Y-40649D01*
X47610Y-40682D01*
X47610Y-40907D01*
X47632Y-40930D01*
X47930Y-40930D01*
X47930Y-41070D01*
X47632Y-41070D01*
X47610Y-41092D01*
X47610Y-41317D01*
X47623Y-41350D01*
X47649Y-41376D01*
X47682Y-41390D01*
X47717Y-41390D01*
X47907Y-41390D01*
X47930Y-41367D01*
X47930Y-42170D01*
X47410Y-42170D01*
X47410Y-39918D01*
X47410Y-38918D01*
X47410Y-37918D01*
X47347Y-37768D01*
X47232Y-37652D01*
X47081Y-37590D01*
X46918Y-37589D01*
X46768Y-37652D01*
X46652Y-37767D01*
X46590Y-37918D01*
X46589Y-38081D01*
X46652Y-38231D01*
X46767Y-38347D01*
X46918Y-38409D01*
X47081Y-38410D01*
X47231Y-38347D01*
X47347Y-38232D01*
X47409Y-38081D01*
X47410Y-37918D01*
X47410Y-38918D01*
X47347Y-38768D01*
X47232Y-38652D01*
X47081Y-38590D01*
X46918Y-38589D01*
X46768Y-38652D01*
X46652Y-38767D01*
X46590Y-38918D01*
X46589Y-39081D01*
X46652Y-39231D01*
X46767Y-39347D01*
X46918Y-39409D01*
X47081Y-39410D01*
X47231Y-39347D01*
X47347Y-39232D01*
X47409Y-39081D01*
X47410Y-38918D01*
X47410Y-39918D01*
X47347Y-39768D01*
X47232Y-39652D01*
X47081Y-39590D01*
X46918Y-39589D01*
X46768Y-39652D01*
X46652Y-39767D01*
X46590Y-39918D01*
X46589Y-40081D01*
X46652Y-40231D01*
X46767Y-40347D01*
X46918Y-40409D01*
X47081Y-40410D01*
X47231Y-40347D01*
X47347Y-40232D01*
X47409Y-40081D01*
X47410Y-39918D01*
X47410Y-42170D01*
X47410Y-42170D01*
X47410Y-41321D01*
X47410Y-41278D01*
X47410Y-40678D01*
X47393Y-40637D01*
X47362Y-40606D01*
X47321Y-40590D01*
X47278Y-40590D01*
X46678Y-40590D01*
X46637Y-40606D01*
X46606Y-40637D01*
X46590Y-40678D01*
X46590Y-40721D01*
X46590Y-41321D01*
X46606Y-41362D01*
X46637Y-41393D01*
X46678Y-41410D01*
X46721Y-41410D01*
X47321Y-41410D01*
X47362Y-41393D01*
X47393Y-41362D01*
X47410Y-41321D01*
X47410Y-42170D01*
X45750Y-42170D01*
X45750Y-39640D01*
X45712Y-39548D01*
X45641Y-39478D01*
X45549Y-39440D01*
X45450Y-39439D01*
X45358Y-39477D01*
X45288Y-39548D01*
X45250Y-39640D01*
X45249Y-39727D01*
X45137Y-39840D01*
X43893Y-39840D01*
X43831Y-39778D01*
X43739Y-39740D01*
X43640Y-39739D01*
X43548Y-39777D01*
X43478Y-39848D01*
X43440Y-39940D01*
X43439Y-40039D01*
X43477Y-40131D01*
X43548Y-40201D01*
X43640Y-40239D01*
X43739Y-40240D01*
X43831Y-40202D01*
X43893Y-40140D01*
X45200Y-40140D01*
X45257Y-40128D01*
X45257Y-40128D01*
X45306Y-40096D01*
X45462Y-39939D01*
X45549Y-39940D01*
X45641Y-39902D01*
X45711Y-39831D01*
X45749Y-39739D01*
X45750Y-39640D01*
X45750Y-42170D01*
X40410Y-42170D01*
X40410Y-39918D01*
X40410Y-38918D01*
X40410Y-37918D01*
X40347Y-37768D01*
X40232Y-37652D01*
X40081Y-37590D01*
X39918Y-37589D01*
X39768Y-37652D01*
X39652Y-37767D01*
X39590Y-37918D01*
X39589Y-38081D01*
X39652Y-38231D01*
X39767Y-38347D01*
X39918Y-38409D01*
X40081Y-38410D01*
X40231Y-38347D01*
X40347Y-38232D01*
X40409Y-38081D01*
X40410Y-37918D01*
X40410Y-38918D01*
X40347Y-38768D01*
X40232Y-38652D01*
X40081Y-38590D01*
X39918Y-38589D01*
X39768Y-38652D01*
X39652Y-38767D01*
X39590Y-38918D01*
X39589Y-39081D01*
X39652Y-39231D01*
X39767Y-39347D01*
X39918Y-39409D01*
X40081Y-39410D01*
X40231Y-39347D01*
X40347Y-39232D01*
X40409Y-39081D01*
X40410Y-38918D01*
X40410Y-39918D01*
X40347Y-39768D01*
X40232Y-39652D01*
X40081Y-39590D01*
X39918Y-39589D01*
X39768Y-39652D01*
X39652Y-39767D01*
X39590Y-39918D01*
X39589Y-40081D01*
X39652Y-40231D01*
X39767Y-40347D01*
X39918Y-40409D01*
X40081Y-40410D01*
X40231Y-40347D01*
X40347Y-40232D01*
X40409Y-40081D01*
X40410Y-39918D01*
X40410Y-42170D01*
X40410Y-42170D01*
X40410Y-41321D01*
X40410Y-41278D01*
X40410Y-40678D01*
X40393Y-40637D01*
X40362Y-40606D01*
X40321Y-40590D01*
X40278Y-40590D01*
X39678Y-40590D01*
X39637Y-40606D01*
X39606Y-40637D01*
X39590Y-40678D01*
X39590Y-40721D01*
X39590Y-41321D01*
X39606Y-41362D01*
X39637Y-41393D01*
X39678Y-41410D01*
X39721Y-41410D01*
X40321Y-41410D01*
X40362Y-41393D01*
X40393Y-41362D01*
X40410Y-41321D01*
X40410Y-42170D01*
X39410Y-42170D01*
X39410Y-39918D01*
X39410Y-38918D01*
X39410Y-37918D01*
X39347Y-37768D01*
X39232Y-37652D01*
X39081Y-37590D01*
X38918Y-37589D01*
X38768Y-37652D01*
X38652Y-37767D01*
X38590Y-37918D01*
X38589Y-38081D01*
X38652Y-38231D01*
X38767Y-38347D01*
X38918Y-38409D01*
X39081Y-38410D01*
X39231Y-38347D01*
X39347Y-38232D01*
X39409Y-38081D01*
X39410Y-37918D01*
X39410Y-38918D01*
X39347Y-38768D01*
X39232Y-38652D01*
X39081Y-38590D01*
X38918Y-38589D01*
X38768Y-38652D01*
X38652Y-38767D01*
X38590Y-38918D01*
X38589Y-39081D01*
X38652Y-39231D01*
X38767Y-39347D01*
X38918Y-39409D01*
X39081Y-39410D01*
X39231Y-39347D01*
X39347Y-39232D01*
X39409Y-39081D01*
X39410Y-38918D01*
X39410Y-39918D01*
X39347Y-39768D01*
X39232Y-39652D01*
X39081Y-39590D01*
X38918Y-39589D01*
X38768Y-39652D01*
X38652Y-39767D01*
X38590Y-39918D01*
X38589Y-40081D01*
X38652Y-40231D01*
X38767Y-40347D01*
X38918Y-40409D01*
X39081Y-40410D01*
X39231Y-40347D01*
X39347Y-40232D01*
X39409Y-40081D01*
X39410Y-39918D01*
X39410Y-42170D01*
X39410Y-42170D01*
X39410Y-41321D01*
X39410Y-41278D01*
X39410Y-40678D01*
X39393Y-40637D01*
X39362Y-40606D01*
X39321Y-40590D01*
X39278Y-40590D01*
X38678Y-40590D01*
X38637Y-40606D01*
X38606Y-40637D01*
X38590Y-40678D01*
X38590Y-40721D01*
X38590Y-41321D01*
X38606Y-41362D01*
X38637Y-41393D01*
X38678Y-41410D01*
X38721Y-41410D01*
X39321Y-41410D01*
X39362Y-41393D01*
X39393Y-41362D01*
X39410Y-41321D01*
X39410Y-42170D01*
X38179Y-42170D01*
X38179Y-35722D01*
X39837Y-37380D01*
X40537Y-37380D01*
X41137Y-37980D01*
X41900Y-37980D01*
X41900Y-38480D01*
X45420Y-38480D01*
X45420Y-37980D01*
X45862Y-37980D01*
X46462Y-37380D01*
X47162Y-37380D01*
X48820Y-35722D01*
X48820Y-42170D01*
M02*
